<?xml version="1.0" standalone="no"?>
<!DOCTYPE svg PUBLIC "-//W3C//DTD SVG 20010904//EN"
 "http://www.w3.org/TR/2001/REC-SVG-20010904/DTD/svg10.dtd">
<svg version="1.0" xmlns="http://www.w3.org/2000/svg"
 width="428.000000pt" height="418.000000pt" viewBox="0 0 428.000000 418.000000"
 preserveAspectRatio="xMidYMid meet">

<g id="large" transform="translate(0.000000,418.000000) scale(0.100000,-0.100000)"
fill="#000000" stroke="none">
<path d="M1843 3930 l-23 -9 0 -277 0 -276 28 6 c34 9 52 32 52 66 0 34 28
129 46 158 27 41 34 24 34 -82 0 -118 9 -136 64 -136 36 0 87 42 66 55 -6 4
-17 2 -24 -4 -7 -6 -16 -8 -19 -4 -4 3 -7 55 -7 115 0 124 -8 148 -49 148 -38
0 -75 -31 -97 -82 l-19 -43 -3 188 c-3 197 -2 196 -49 177z"/>
<path d="M490 3733 c0 -5 357 -365 792 -800 l793 -793 -795 -795 c-437 -437
-791 -798 -787 -802 4 -4 365 350 802 787 l795 795 795 -795 c437 -437 798
-791 802 -787 4 4 -350 365 -787 802 l-795 795 795 795 c437 437 791 798 787
802 -4 4 -365 -350 -802 -787 l-795 -795 -793 793 c-435 435 -795 792 -800
792 -4 0 -7 -3 -7 -7z"/>
<path d="M2487 3672 c-24 -25 -27 -33 -17 -49 10 -15 9 -25 -4 -51 -18 -34
-20 -52 -8 -52 5 0 17 17 26 39 17 35 21 38 57 37 22 0 38 -3 36 -6 -2 -3 -11
-23 -21 -45 -45 -99 -27 -165 45 -165 43 0 89 24 89 46 0 10 -8 12 -30 8 -38
-8 -58 8 -66 52 -9 47 0 73 42 128 20 26 34 49 32 52 -3 2 -21 -3 -42 -11 -40
-17 -66 -10 -96 27 -15 19 -16 18 -43 -10z"/>
<path d="M1571 3668 c-80 -43 -114 -150 -73 -227 20 -38 73 -71 112 -71 37 1
101 33 133 68 40 42 18 50 -34 12 -55 -39 -83 -38 -125 4 -30 30 -34 40 -34
86 0 63 10 84 49 99 29 13 66 3 82 -21 4 -6 20 -3 39 7 l33 17 -21 20 c-32 33
-107 35 -161 6z"/>
<path d="M2241 3672 c-59 -29 -94 -84 -98 -150 -3 -45 0 -64 17 -90 27 -43 80
-66 135 -57 46 6 125 58 125 81 0 20 -11 18 -50 -11 -39 -29 -76 -32 -108 -9
l-23 16 43 27 c68 43 118 105 118 144 0 20 -8 41 -18 50 -25 22 -97 22 -141
-1z m67 -34 c26 -26 13 -67 -34 -115 -36 -35 -48 -43 -55 -32 -21 33 -5 103
31 139 23 23 41 25 58 8z"/>
<path d="M2037 2832 c-23 -25 -22 -85 1 -105 25 -23 85 -22 105 1 23 25 22 85
-1 105 -25 23 -85 22 -105 -1z"/>
<path d="M2037 1532 c-23 -25 -22 -85 1 -105 25 -23 85 -22 105 1 23 25 22 85
-1 105 -25 23 -85 22 -105 -1z"/>
<path d="M1388 838 c-27 -9 -28 -12 -28 -79 0 -52 -3 -69 -14 -69 -13 0 -26
-20 -26 -41 0 -5 9 -9 20 -9 19 0 20 -7 20 -118 0 -130 5 -142 57 -142 32 0
73 28 73 50 0 13 -13 13 -27 -1 -24 -24 -33 4 -33 106 l0 104 33 3 c24 2 33 8
35 26 3 19 -1 22 -32 22 l-36 0 0 80 c0 44 -3 80 -7 79 -5 0 -20 -5 -35 -11z"/>
<path d="M2963 838 c-33 -11 -33 -12 -33 -74 0 -51 -4 -68 -20 -84 -11 -11
-20 -24 -20 -30 0 -5 9 -10 20 -10 19 0 20 -7 20 -111 0 -61 5 -119 10 -130
22 -39 120 -15 120 29 0 15 -17 16 -25 2 -18 -29 -25 0 -25 100 l0 110 25 0
c14 0 29 8 35 19 15 29 13 31 -25 31 l-35 0 0 80 c0 44 -3 80 -7 79 -5 -1 -23
-6 -40 -11z"/>
<path d="M1144 685 c-11 -17 -14 -35 -10 -56 4 -23 0 -41 -15 -66 -26 -42 -15
-58 15 -21 l22 28 47 -44 c36 -33 46 -48 41 -62 -19 -51 -51 -58 -90 -18 -25
24 -27 24 -40 7 -37 -47 -37 -53 0 -68 45 -19 70 -19 110 0 57 27 83 104 54
158 -6 12 -27 36 -45 52 -32 28 -34 32 -23 57 7 15 10 34 7 42 -10 25 -54 19
-73 -9z"/>
<path d="M2177 680 c-18 -29 -18 -31 2 -56 12 -15 21 -33 21 -40 0 -21 -31
-94 -40 -94 -4 0 -18 40 -31 90 -29 113 -29 114 -68 105 -26 -6 -31 -11 -31
-36 0 -35 -19 -120 -30 -132 -4 -4 -17 27 -29 70 -27 92 -35 103 -71 103 -30
0 -85 -44 -75 -61 5 -6 11 -7 19 0 22 18 35 -5 74 -124 31 -98 41 -120 57
-120 16 0 24 17 46 100 15 55 29 93 32 85 4 -8 17 -53 30 -100 34 -120 45
-118 108 16 61 130 66 152 45 193 -21 39 -37 39 -59 1z"/>
<path d="M2660 670 c-17 -24 -19 -34 -10 -45 9 -10 6 -23 -9 -54 -24 -46 -25
-51 -11 -51 5 0 18 17 29 37 16 33 23 37 57 38 l39 1 -22 -45 c-27 -53 -31
-132 -7 -155 22 -23 86 -20 118 5 31 24 27 38 -9 31 -31 -5 -61 19 -68 55 -7
39 9 85 48 130 40 47 34 60 -20 37 -34 -14 -39 -14 -61 1 -14 9 -28 23 -31 31
-8 21 -19 17 -43 -16z"/>
<path d="M1627 669 c-20 -11 -48 -36 -62 -57 -110 -166 64 -318 218 -191 51
42 35 62 -19 25 -21 -14 -50 -26 -64 -26 -24 1 -68 25 -59 34 2 2 27 21 56 43
94 70 119 120 83 166 -18 23 -29 27 -68 27 -27 -1 -63 -9 -85 -21z m83 -39
c15 -28 5 -55 -37 -101 -41 -45 -60 -49 -69 -14 -9 35 2 68 32 104 30 36 59
40 74 11z"/>
<path d="M2382 669 c-111 -55 -136 -239 -39 -285 42 -20 81 -13 110 20 l21 24
11 -22 c18 -37 95 -34 116 5 13 26 5 36 -17 19 -24 -21 -34 4 -34 93 0 42 -2
77 -4 77 -1 0 -17 -5 -33 -11 -27 -9 -31 -15 -36 -62 -7 -54 -33 -100 -60
-105 -23 -5 -55 35 -62 78 -15 90 67 176 119 124 12 -12 23 -13 44 -6 37 12
34 34 -8 54 -46 23 -76 23 -128 -3z"/>
</g>

<g id="small" transform="translate(0.000000,92.000000) scale(0.100000,-0.100000)"
fill="#000000" stroke="none">
<path d="M442 823 c-64 -31 -85 -131 -37 -178 37 -38 102 -35 145 5 39 37 32
53 -10 22 -16 -12 -38 -22 -48 -22 -58 0 -87 113 -37 146 22 15 27 15 48 1 19
-12 27 -13 46 -2 l24 12 -24 17 c-30 20 -65 20 -107 -1z"/>
<path d="M127 813 c-4 -4 70 -85 165 -180 l173 -173 -173 -173 c-95 -95 -169
-176 -165 -180 4 -4 85 70 180 165 l173 173 175 -175 c96 -96 178 -171 182
-167 4 4 -71 86 -167 182 l-175 175 175 175 c96 96 171 178 167 182 -4 4 -86
-71 -182 -167 l-175 -175 -173 173 c-95 95 -176 169 -180 165z"/>
<path d="M277 466 c-10 -26 4 -47 27 -44 15 2 21 10 21 28 0 29 -38 41 -48 16z"/>
<path d="M637 466 c-10 -26 4 -47 27 -44 15 2 21 10 21 28 0 29 -38 41 -48 16z"/>
<path d="M451 324 c-16 -11 -21 -24 -19 -49 1 -18 -4 -40 -11 -49 -8 -9 -11
-20 -7 -24 4 -4 14 2 22 13 14 19 15 18 46 -12 20 -20 29 -37 25 -47 -10 -26
-36 -30 -58 -10 -18 16 -21 16 -36 2 -27 -28 -9 -48 42 -48 58 0 85 25 85 78
0 29 -7 45 -29 66 -24 23 -29 35 -24 56 6 35 -7 44 -36 24z"/>
</g>
</svg>
